<?xml version="1.0" encoding="utf-8"?>
<!-- Generator: Adobe Illustrator 21.0.0, SVG Export Plug-In . SVG Version: 6.00 Build 0)  -->
<svg version="1.1" id="Layer_1" xmlns="http://www.w3.org/2000/svg" x="0px"
     y="0px"
     viewBox="0 0 114.4 97.2" style="enable-background:new 0 0 114.4 97.2;" xml:space="preserve">
<style type="text/css">
	.st0{fill:#FFFFFF;}
</style>
    <path class="st0" d="M72.6,3.9c0-2.1-1.8-3.9-3.9-3.9s-3.9,1.8-3.9,3.9v19.3h7.8V3.9z"/>
    <circle class="st0" cx="49.5" cy="88.7" r="8.5"/>
    <circle class="st0" cx="89.5" cy="88.7" r="8.5"/>
    <path class="st0" d="M111,23.2H29.2L21.1,3.3c-0.4-1-1.2-1.7-2.1-2.1c-0.5-0.2-1-0.3-1.5-0.3H3.8C1.7,0.9,0,2.6,0,4.7
	c0,2.1,1.7,3.8,3.8,3.8H15l8.3,20.3c0,0.1,0,0.1,0,0.2l16.4,40.5c0.7,1.8,2.5,3,4.5,3h50.1c2.7,0,5-1.7,5.9-4.2l14-40.6
	C115,25.6,113.3,23.2,111,23.2z M88.7,44.4L71.5,61.6c-0.3,0.3-0.7,0.5-1,0.7c-0.1,0.1-0.2,0.2-0.3,0.2c-0.5,0.2-1,0.3-1.5,0.3
	s-1-0.1-1.5-0.3c-0.1-0.1-0.2-0.2-0.3-0.2c-0.4-0.2-0.7-0.4-1-0.7L48.7,44.4c-1.5-1.5-1.5-4,0-5.5s4-1.5,5.5,0l10.6,10.6V23.3h7.8
	v26.2l10.6-10.6c1.5-1.5,4-1.5,5.5,0S90.2,42.9,88.7,44.4z"/>
</svg>
