<?xml version="1.0" encoding="utf-8"?>
<!-- Generator: Adobe Illustrator 21.0.0, SVG Export Plug-In . SVG Version: 6.00 Build 0)  -->
<svg version="1.1" id="Layer_1" xmlns="http://www.w3.org/2000/svg" x="0px"
     y="0px"
     viewBox="0 0 319.7 230.2" style="enable-background:new 0 0 319.7 230.2;" xml:space="preserve">
<style type="text/css">
	.st0{enable-background:new    ;}
	.st1{fill:#FFFFFF;}
</style>
    <g class="st0">
	<path class="st1" d="M22.7,153.5c0.5-0.8,1.1-1,1.8-0.5l2.9,1.7c0.7,0.5,0.9,1.1,0.4,1.8c-2.4,4.2-6.3,6.3-11.6,6.3
		c-8.7,0-13.4-4.8-13.4-13.4v-11.6c0-8.7,4.7-13.4,13.4-13.4c5.4,0,9.3,2.1,11.7,6.3c0.4,0.7,0.2,1.3-0.5,1.8l-2.9,1.8
		c-0.7,0.4-1.3,0.3-1.8-0.4c-1.6-2.4-3.7-3.6-6.5-3.6c-4.4,0-6.6,2.7-6.6,8.2v10.4c0,5.5,2.2,8.2,6.6,8.2
		C19.1,157.1,21.2,155.9,22.7,153.5z"/>
        <path class="st1" d="M53.5,144.4v7.9c0,6.9-3.9,10.6-10.8,10.6c-7.1,0-10.9-3.7-10.9-10.6v-7.9c0-6.9,3.8-10.6,10.9-10.6
		C49.6,133.8,53.5,137.5,53.5,144.4z M47.4,144.8c0-3.9-1.6-5.8-4.7-5.8s-4.8,2-4.8,5.8v6.9c0,3.9,1.6,5.9,4.8,5.9s4.7-2,4.7-5.9
		V144.8z"/>
        <path class="st1" d="M94.6,144.2v16.7c0,0.8-0.4,1.3-1.3,1.3h-3.5c-0.8,0-1.3-0.4-1.3-1.3v-16.4c0-3.7-1.5-5.5-4.4-5.5
		c-2.8,0-4.3,1.8-4.3,5.5v16.4c0,0.8-0.4,1.3-1.3,1.3H75c-0.8,0-1.3-0.4-1.3-1.3v-16.4c0-3.7-1.5-5.5-4.4-5.5
		c-2.8,0-4.2,1.8-4.2,5.5v16.4c0,0.8-0.4,1.3-1.3,1.3h-3.5c-0.8,0-1.3-0.4-1.3-1.3v-16.7c0-6.8,3.5-10.4,10-10.4
		c3.5,0,6,1.1,7.7,3.2h0.1c1.7-2.1,4.2-3.2,7.7-3.2C91.1,133.8,94.6,137.4,94.6,144.2z"/>
        <path class="st1" d="M122.6,152.2c0,6.9-3.5,10.6-9.8,10.6c-2.5,0-4.4-0.7-5.8-2.2l0,0v9.2c0,0.8-0.4,1.3-1.3,1.3h-3.5
		c-0.8,0-1.3-0.4-1.3-1.3v-25.5c0-6.9,3.9-10.6,10.8-10.6c7,0,10.9,3.7,10.9,10.6C122.6,144.3,122.6,152.2,122.6,152.2z
		 M116.5,144.9c0-3.9-1.6-5.9-4.8-5.9s-4.7,2-4.7,5.9v6.9c0,3.9,1.6,5.8,4.7,5.8s4.8-2,4.8-5.8V144.9z"/>
        <path class="st1" d="M128.2,144.3c0-7,3.2-10.5,9.7-10.5c2.4,0,4.5,0.5,6.3,1.6c0.7,0.4,0.8,1,0.4,1.7l-1.3,2.3
		c-0.3,0.7-0.9,0.8-1.7,0.4c-1-0.5-2-0.8-3.1-0.8c-2.8,0-4.2,1.7-4.2,5.1v16.8c0,0.8-0.4,1.3-1.3,1.3h-3.5c-0.8,0-1.3-0.4-1.3-1.3
		L128.2,144.3L128.2,144.3z"/>
        <path class="st1" d="M168.2,144.8v7.4c0,6.9-3.9,10.6-11,10.6c-6.8,0-10.4-3.1-10.4-8.8c0-5.4,3.6-8.5,10.1-8.5h5.2v-0.3
		c0-4.4-1.7-6.3-5.6-6.3c-1.7,0-3.4,0.6-4.9,1.8c-0.7,0.5-1.3,0.4-1.8-0.3l-1.5-2.3c-0.5-0.7-0.4-1.3,0.3-1.8
		c2.5-1.7,5.3-2.6,8.5-2.6C164.3,133.8,168.2,137.5,168.2,144.8z M162.1,151.7V150h-4.4c-3.1,0-4.8,1.3-4.8,3.8s1.5,3.7,4.3,3.7
		C160.5,157.6,162.1,155.7,162.1,151.7z"/>
        <path class="st1" d="M199.2,125.1c9.1,0,13.6,4.3,13.6,12.9v11.3c0,8.6-4.5,12.9-13.6,12.9H188c-0.8,0-1.3-0.4-1.3-1.3v-34.5
		c0-0.8,0.4-1.3,1.3-1.3C188,125.1,199.2,125.1,199.2,125.1z M206.1,138.6c0-5.2-2.3-7.7-7.3-7.7h-5.4v25.5h5.4c5,0,7.3-2.4,7.3-7.7
		V138.6z"/>
        <path class="st1" d="M222.1,122.6c2.1,0,3.6,1.5,3.6,3.6c0,2.2-1.5,3.6-3.6,3.6c-2.2,0-3.6-1.5-3.6-3.6
		C218.5,124.1,220.1,122.6,222.1,122.6z M220.4,162.2c-0.8,0-1.3-0.4-1.3-1.3v-25.2c0-0.8,0.4-1.3,1.3-1.3h3.5
		c0.8,0,1.3,0.4,1.3,1.3v25.2c0,0.8-0.4,1.3-1.3,1.3H220.4z"/>
        <path class="st1" d="M231.6,144.3c0-7,3.2-10.5,9.7-10.5c2.4,0,4.5,0.5,6.3,1.6c0.7,0.4,0.8,1,0.4,1.7l-1.3,2.3
		c-0.3,0.7-0.9,0.8-1.7,0.4c-0.9-0.5-2-0.8-3.1-0.8c-2.8,0-4.2,1.7-4.2,5.1v16.8c0,0.8-0.4,1.3-1.3,1.3h-3.5c-0.8,0-1.3-0.4-1.3-1.3
		L231.6,144.3L231.6,144.3z"/>
        <path class="st1" d="M272.1,148.9c0,0.8-0.4,1.3-1.3,1.3h-14v1.1c0,4.4,1.8,6.3,5.8,6.3c1.8,0,3.5-0.6,5-1.9
		c0.7-0.6,1.3-0.6,1.8,0.2l1.5,2.2c0.4,0.6,0.4,1.2-0.2,1.8c-2.2,2-5,3-8.3,3c-7.8,0-11.7-3.7-11.7-11.1v-7.4
		c0-6.9,3.8-10.6,10.7-10.6s10.7,3.7,10.7,10.6V148.9z M266.3,145.7v-0.8c0-3.9-1.6-5.8-4.7-5.8c-3.2,0-4.8,2-4.8,5.8v0.8H266.3z"/>
        <path class="st1" d="M293.3,160.3c0.3,0.8,0.1,1.3-0.7,1.7c-1.2,0.6-2.8,0.8-4.7,0.8c-6.3,0-9.4-3.1-9.4-9.4v-13.7h-2.3
		c-0.8,0-1.3-0.4-1.3-1.3v-2.7c0-0.8,0.4-1.3,1.3-1.3h2.3v-6c0-0.8,0.4-1.3,1.3-1.3h3.5c0.8,0,1.3,0.4,1.3,1.3v6h6.8
		c0.8,0,1.3,0.4,1.3,1.3v2.7c0,0.8-0.4,1.3-1.3,1.3h-6.8v13.7c0,2.8,1.3,4.2,4,4.2c0.7,0,1.5-0.2,2.3-0.4c0.8-0.3,1.4-0.1,1.6,0.7
		L293.3,160.3z"/>
        <path class="st1" d="M317.2,144.8v7.4c0,6.9-3.9,10.6-11,10.6c-6.8,0-10.4-3.1-10.4-8.8c0-5.4,3.6-8.5,10.1-8.5h5.2v-0.3
		c0-4.4-1.7-6.3-5.6-6.3c-1.7,0-3.4,0.6-4.9,1.8c-0.7,0.5-1.3,0.4-1.8-0.3l-1.5-2.3c-0.5-0.7-0.4-1.3,0.3-1.8
		c2.5-1.7,5.3-2.6,8.5-2.6C313.3,133.8,317.2,137.5,317.2,144.8z M311.1,151.7V150h-4.4c-3.1,0-4.8,1.3-4.8,3.8s1.5,3.7,4.3,3.7
		C309.5,157.6,311.1,155.7,311.1,151.7z"/>
</g>
    <g class="st0">
	<path class="st1" d="M59.2,195.5h13.3c0.8,0,1.3,0.4,1.3,1.3v3.2c0,0.8-0.4,1.3-1.3,1.3H59.2v10.1H75c0.8,0,1.3,0.4,1.3,1.3v3.2
		c0,0.8-0.4,1.3-1.3,1.3H53.8c-0.8,0-1.3-0.4-1.3-1.3v-34.5c0-0.8,0.4-1.3,1.3-1.3H75c0.8,0,1.3,0.4,1.3,1.3v3.2
		c0,0.8-0.4,1.3-1.3,1.3H59.2V195.5z"/>
        <path class="st1" d="M83.2,217.2c-0.8,0-1.3-0.4-1.3-1.3v-36.5c0-0.8,0.4-1.3,1.3-1.3h3.5c0.8,0,1.3,0.4,1.3,1.3v36.5
		c0,0.8-0.4,1.3-1.3,1.3H83.2z"/>
        <path class="st1" d="M115.1,203.9c0,0.8-0.4,1.3-1.3,1.3h-14v1.1c0,4.4,1.8,6.3,5.8,6.3c1.8,0,3.5-0.6,5-1.9
		c0.7-0.6,1.3-0.6,1.8,0.2l1.5,2.2c0.4,0.6,0.4,1.2-0.2,1.8c-2.2,2-5,3-8.3,3c-7.8,0-11.7-3.7-11.7-11.1v-7.4
		c0-6.9,3.8-10.6,10.7-10.6s10.7,3.7,10.7,10.6V203.9z M109.3,200.7v-0.8c0-3.9-1.6-5.8-4.7-5.8c-3.2,0-4.8,2-4.8,5.8v0.8H109.3z"/>
        <path class="st1" d="M136.3,215.3c0.3,0.8,0.1,1.3-0.7,1.7c-1.2,0.6-2.8,0.8-4.7,0.8c-6.3,0-9.4-3.1-9.4-9.4v-13.7h-2.3
		c-0.8,0-1.3-0.4-1.3-1.3v-2.7c0-0.8,0.4-1.3,1.3-1.3h2.3v-6c0-0.8,0.4-1.3,1.3-1.3h3.5c0.8,0,1.3,0.4,1.3,1.3v6h6.8
		c0.8,0,1.3,0.4,1.3,1.3v2.7c0,0.8-0.4,1.3-1.3,1.3h-6.8v13.7c0,2.8,1.3,4.2,4,4.2c0.7,0,1.5-0.2,2.3-0.4c0.8-0.3,1.4-0.1,1.6,0.7
		L136.3,215.3z"/>
        <path class="st1" d="M140.1,199.3c0-7,3.2-10.5,9.7-10.5c2.4,0,4.5,0.5,6.3,1.6c0.7,0.4,0.8,1,0.4,1.7l-1.3,2.3
		c-0.3,0.7-0.9,0.8-1.7,0.4c-1-0.5-2-0.8-3.1-0.8c-2.8,0-4.2,1.7-4.2,5.1v16.8c0,0.8-0.4,1.3-1.3,1.3h-3.5c-0.8,0-1.3-0.4-1.3-1.3
		L140.1,199.3L140.1,199.3z"/>
        <path class="st1" d="M181,199.4v7.9c0,6.9-3.9,10.6-10.8,10.6c-7.1,0-10.9-3.7-10.9-10.6v-7.9c0-6.9,3.8-10.6,10.9-10.6
		C177.1,188.8,181,192.5,181,199.4z M172,176.8c0.6,0,1,0.2,1.3,0.7l4.5,6.7c0.5,0.7,0.2,1.3-0.7,1.3H174c-0.6,0-1-0.2-1.3-0.7
		l-2.6-3.8l-2.6,3.8c-0.3,0.5-0.8,0.7-1.3,0.7h-3.1c-0.9,0-1.2-0.6-0.7-1.3l4.5-6.7c0.3-0.5,0.8-0.7,1.3-0.7H172z M174.9,199.8
		c0-3.9-1.6-5.8-4.7-5.8c-3.2,0-4.8,2-4.8,5.8v6.9c0,3.9,1.6,5.9,4.8,5.9s4.7-2,4.7-5.9V199.8z"/>
        <path class="st1" d="M201.8,199.6c0-3.7-1.5-5.6-4.5-5.6c-3.1,0-4.6,1.8-4.6,5.6v16.3c0,0.8-0.4,1.3-1.3,1.3h-3.5
		c-0.8,0-1.3-0.4-1.3-1.3v-16.7c0-6.8,3.7-10.4,10.7-10.4c6.9,0,10.6,3.7,10.6,10.4v16.7c0,0.8-0.4,1.3-1.3,1.3H203
		c-0.8,0-1.3-0.4-1.3-1.3v-16.3H201.8z"/>
        <path class="st1" d="M217.4,177.6c2.1,0,3.6,1.5,3.6,3.6c0,2.2-1.5,3.6-3.6,3.6c-2.2,0-3.6-1.5-3.6-3.6
		C213.8,179.1,215.3,177.6,217.4,177.6z M215.6,217.2c-0.8,0-1.3-0.4-1.3-1.3v-25.2c0-0.8,0.4-1.3,1.3-1.3h3.5
		c0.8,0,1.3,0.4,1.3,1.3v25.2c0,0.8-0.4,1.3-1.3,1.3H215.6z"/>
        <path class="st1" d="M245.1,213.4c0.5,0.7,0.4,1.3-0.2,1.8c-2.1,1.8-4.6,2.7-7.6,2.7c-7.1,0-11.1-3.9-11.1-11.1v-7
		c0-7.2,3.9-11,10.9-11c3,0,5.4,0.7,7.2,2.2c0.6,0.5,0.7,1.1,0.2,1.8l-1.6,2.2c-0.4,0.6-1.1,0.7-1.8,0.2c-1-0.7-2.2-1.1-3.6-1.1
		c-3.5,0-5.2,2.1-5.2,6.3v6.1c0,4.2,1.8,6.3,5.5,6.3c1.5,0,2.8-0.5,4-1.5c0.7-0.6,1.3-0.6,1.8,0.2L245.1,213.4z"/>
        <path class="st1" d="M269.5,199.8v7.4c0,6.9-3.9,10.6-11,10.6c-6.8,0-10.4-3.1-10.4-8.8c0-5.4,3.6-8.5,10.1-8.5h5.2v-0.3
		c0-4.4-1.7-6.3-5.6-6.3c-1.7,0-3.4,0.6-4.9,1.8c-0.7,0.5-1.3,0.4-1.8-0.3l-1.5-2.3c-0.5-0.7-0.4-1.3,0.3-1.8
		c2.5-1.7,5.3-2.6,8.5-2.6C265.6,188.8,269.5,192.5,269.5,199.8z M263.4,206.7V205H259c-3.1,0-4.8,1.3-4.8,3.8s1.5,3.7,4.3,3.7
		C261.8,212.6,263.4,210.7,263.4,206.7z"/>
</g>
    <path class="st1" d="M169.3,3.9c0-2.1-1.8-3.9-3.9-3.9s-3.9,1.8-3.9,3.9v19.3h7.8L169.3,3.9L169.3,3.9z"/>
    <circle class="st1" cx="146.2" cy="88.7" r="8.5"/>
    <circle class="st1" cx="186.2" cy="88.7" r="8.5"/>
    <path class="st1" d="M207.7,23.2h-81.8l-8.1-19.9c-0.4-1-1.2-1.7-2.1-2.1c-0.5-0.2-1-0.3-1.5-0.3h-13.7c-2.1,0-3.8,1.7-3.8,3.8
	c0,2.1,1.7,3.8,3.8,3.8h11.2l8.3,20.3c0,0.1,0,0.1,0,0.2l16.4,40.5c0.7,1.8,2.5,3,4.5,3H191c2.7,0,5-1.7,5.9-4.2l14-40.6
	C211.7,25.6,210,23.2,207.7,23.2z M185.4,44.4l-17.2,17.2c-0.3,0.3-0.7,0.5-1,0.7c-0.1,0.1-0.2,0.2-0.3,0.2c-0.5,0.2-1,0.3-1.5,0.3
	s-1-0.1-1.5-0.3c-0.1-0.1-0.2-0.2-0.3-0.2c-0.4-0.2-0.7-0.4-1-0.7l-17.2-17.2c-1.5-1.5-1.5-4,0-5.5s4-1.5,5.5,0l10.6,10.6V23.3h7.8
	v26.2l10.6-10.6c1.5-1.5,4-1.5,5.5,0S186.9,42.9,185.4,44.4z"/>
</svg>
